<svg xmlns="http://www.w3.org/2000/svg" xmlns:xlink="http://www.w3.org/1999/xlink" width="500" zoomAndPan="magnify" viewBox="0 0 375 374.999991" height="500" preserveAspectRatio="xMidYMid meet" version="1.0"><path fill="#b84a62" d="M 204.847656 207.800781 C 202.890625 206.429688 201.566406 205.269531 199.46875 203.789062 C 190.269531 197.289062 175.722656 188.542969 165.695312 183.125 C 149 174.117188 132.257812 164.9375 122.742188 152.839844 C 107.820312 133.867188 119.261719 140.375 102.511719 136.132812 L 73.90625 128.550781 C 72.261719 148.117188 83.246094 169.585938 92.1875 180.273438 C 113.71875 206.015625 126.21875 206.332031 153.582031 223.375 C 162.199219 228.746094 166.15625 230.984375 174.675781 237.3125 C 186.792969 246.316406 201.46875 259.515625 207.351562 274.109375 C 214.796875 292.554688 210.628906 316.765625 200.679688 330.203125 C 190.28125 344.257812 174.25 350.882812 149.75 344.828125 C 124.21875 338.519531 102.722656 320.601562 93.527344 295.960938 C 90.097656 286.769531 88.382812 277.734375 87.820312 267.152344 L 82.679688 267.152344 L 76.746094 334.558594 C 80.800781 335.667969 86.050781 338.035156 90.546875 339.605469 C 104.664062 344.539062 119.007812 348.390625 134.089844 350.484375 C 157.09375 353.683594 178.574219 353.449219 200.011719 347.050781 C 220.320312 340.988281 233.855469 331.476562 241.097656 314.917969 C 249.65625 295.359375 248.925781 274.003906 241.382812 253.835938 C 234.675781 235.890625 219.921875 218.417969 204.847656 207.800781 Z M 204.847656 207.800781 " fill-opacity="1" fill-rule="evenodd"/><path fill="#b84a62" d="M 301.945312 258.132812 C 305.40625 224.359375 294.117188 198.519531 270.792969 177.496094 C 241.210938 150.824219 209.398438 140.71875 190.875 126.003906 C 188.972656 124.488281 187.886719 123.472656 186.027344 122.09375 C 184.171875 120.726562 182.929688 119.640625 181.347656 118.027344 C 179.054688 115.691406 175.363281 111.207031 173.285156 107.945312 C 155.816406 80.566406 162.066406 44.324219 187.199219 36.382812 C 205.035156 30.746094 229.058594 36.800781 244.078125 46.527344 C 250.917969 50.953125 258.160156 57.035156 262.882812 62.765625 C 278.605469 81.847656 278.027344 93.230469 282.449219 113.855469 L 287.722656 113.804688 L 293.335938 47.070312 C 284.566406 40.890625 250.40625 32.109375 237.058594 30.402344 C 196.695312 25.234375 153.632812 30.621094 134.15625 69.6875 C 124.550781 88.945312 130.820312 111.957031 139.40625 128.664062 C 147.230469 143.886719 160.585938 156.542969 175.394531 165.261719 C 196.402344 177.632812 234.78125 196.554688 251.0625 217.285156 C 257.382812 225.328125 261.214844 228.523438 264.542969 240.0625 C 265.140625 242.128906 265.644531 245.398438 266.238281 247.183594 C 267.113281 249.820312 269.371094 249.65625 272.367188 250.429688 C 281.84375 252.867188 292.457031 256.328125 301.945312 258.132812 Z M 301.945312 258.132812 " fill-opacity="1" fill-rule="evenodd"/></svg>